<svg version="1.2" xmlns="http://www.w3.org/2000/svg" viewBox="0 0 343 343" width="343" height="343">
	<title>icons-ai</title>
	<style>
		tspan { white-space:pre } 
		.s0 { fill: none;stroke: #231f20;stroke-width: 40 } 
		.s1 { fill: #ffffff } 
		.s2 { fill: none;stroke: #020202;stroke-width: 6 } 
		.s3 { fill: none;stroke: #3f3f3f;stroke-width: 4 } 
		.s4 { fill: #706f6f;stroke: #3f3f3f;stroke-width: 4 } 
		.s5 { fill: #f9f7f7;stroke: #3f3f3f;stroke-width: 4 } 
		.s6 { fill: #706f6f;stroke: #3f3f3f;stroke-linejoin: round;stroke-width: 4 } 
		.s7 { fill: none;stroke: #3f3f3f;stroke-linecap: round;stroke-linejoin: round;stroke-width: 4 } 
		.s8 { fill: none;stroke: #231f20;stroke-linecap: round;stroke-linejoin: round;stroke-width: 3 } 
		.s9 { fill: none;stroke: #939598;stroke-width: 2 } 
		.s10 { fill: none;stroke: #939598;stroke-width: 2;stroke-dasharray: 10,4 } 
		.s11 { fill: none;stroke: #939598;stroke-width: 2;stroke-dasharray: 12,4 } 
		.s12 { fill: none;stroke: #020202;stroke-width: 3 } 
		.s13 { fill: #020202 } 
		.s14 { fill: none;stroke: #020202;stroke-linecap: round;stroke-linejoin: round;stroke-width: 3 } 
		.s15 { fill: none;stroke: #000000;stroke-width: 3 } 
		.s16 { fill: #000000;stroke: #000000;stroke-width: 3 } 
	</style>
	<g id="Layer 1">
		<path id="&lt;Path&gt;" class="s0" d="m1627.9 170.7c0 80.6-65.3 145.9-145.9 145.9-80.5 0-145.8-65.3-145.8-145.9 0-80.6 65.3-145.9 145.8-145.9 80.6 0 145.9 65.3 145.9 145.9z"/>
		<g id="&lt;Group&gt;">
			<g id="&lt;Group&gt;">
				<path id="&lt;Path&gt;" class="s1" d="m1482.6 161.7c3 2.8 4.2 7 3.5 11q-2.3-0.9-4.6-1.9 3.8-6.8 7.6-13.7 1.4 1.9 2.8 3.7c-7.3 1.3-13.8 5.1-18.6 10.9-0.8 1-2.6 0.9-3.5 0-1-1-0.9-2.5 0-3.6 5.2-6.3 12.7-10.7 20.8-12.1 2.1-0.4 3.9 1.6 2.8 3.7q-3.8 6.8-7.6 13.6c-0.6 1.1-2 1.5-3.1 1.1-1.2-0.5-1.7-1.8-1.4-3 0.4-2.1-0.5-4.5-2.2-6.2-2.4-2.1 1.1-5.7 3.5-3.5z"/>
			</g>
		</g>
		<g id="&lt;Group&gt;">
			<g id="&lt;Group&gt;">
				<path id="&lt;Path&gt;" class="s1" d="m1477.9 137.6c1.3 0 2.6 1.1 2.5 2.5-0.4 4.4-0.3 9 0.4 13.4q-1.8-0.7-3.6-1.5c0.5-0.3 0.2-0.1 0.6-0.5q0.2-0.2 0.4-0.4c0.3-0.3-0.1 0.2 0.1-0.1 0.4-0.5 0.9-1.4 1-1.9 0.6-1.2 1.1-2.9 1.6-4.4 1.1-3.2 2.8-6.5 6.5-7.2 1.3-0.3 2.7 0.3 3 1.7 0.7 2.5 0.7 5 0.2 7.5q-2.3-1-4.6-2c0.3-0.5 0.1-0.2 0.1 0-0.2-0.8 0.3 0.3 0-0.5-0.1-0.1-0.4-0.4-0.6-0.6-0.7-0.5-2-0.3-2.9 0.1-2.6 1-5.2 2.8-7.4 4.5-4.1 3-7.9 8-5.8 13.2q-2.1-0.5-4.2-1.1c4.1-5.1 7.8-10.5 11.2-16.1q2.1 1.2 4.3 2.5-4.6 7.7-9.3 15.3c-1.3 2.2-4.6 1.2-4.7-1.3-0.2-6.4 0.2-13.6 5.8-17.8 2.7-2.1 6-2.3 9.4-2.1 1.6 0 5.3 0.3 6-1.8 0.9-2.5 5-2.2 4.9 0.7-0.2 9-8.7 14.2-16 17.5-1 0.5-2.2 0.5-3-0.4-0.8-0.7-1-2.1-0.4-3q2.1-3.3 4.2-6.6 0.7 1.8 1.5 3.6c-2.3-0.6-4.6 0.7-6 2.5-1.9 2.6-2.5 5.9-3.1 9q-2.4-0.7-4.8-1.4c3.6-8.6 8.5-16.6 14.5-23.8 1.1-1.3 3.1-0.7 3.9 0.5 2.5 3.7 3 8.5 1.3 12.6-0.5 1.4-2.1 2.4-3.6 1.5-0.7-0.4-0.1 0 0.1-0.1-0.6 0.3 0-0.1-0.6 0.3-0.3 0.2-0.6 0.6-0.9 0.9-0.8 1.1-1.3 2.5-1.7 3.9-1.1 3-1.8 6.2-2.1 9.4q-2.5-0.4-4.9-0.7c0.9-7.1 2.8-14.1 5.4-20.8 0.4-1 1-1.6 2.1-1.8 0.9-0.1 2.1 0.3 2.5 1.2 2.2 4.9 0.2 10-2.7 14.1-2.4 3.4-6.8 7.6-5.6 12.1q-2.4 0.4-4.9 0.7 0-2.7 0-5.3c0-3.2 4.9-3.2 5 0q0.2 9.8 2.5 19.4-2.2-0.3-4.5-0.6 5-10 10.1-20.1c1.2-2.6 5.3-0.8 4.5 1.9-2.7 8.7-6.1 17.2-10.1 25.4-0.5 1-1.8 1.4-2.9 1.1-1.1-0.3-1.6-1.3-1.8-2.4-0.6-4.9-0.4-9.7 0.4-14.6q2.4 0.7 4.8 1.3c-0.4 2.2-2.9 3.2-4.9 2.6-2.3-0.7-3-3.1-3.1-5.3 0-5 0.4-10.1 1-15 0.2-1.4 1-2.5 2.5-2.5 1.4 0 2.5 1.1 2.5 2.5q0 9.3 0 18.6-2.2-0.9-4.3-1.8c2.5-2.6 3.8-6 3.6-9.6-0.1-3.3 4.9-3.2 5 0 0.2 4.9-1.7 9.6-5.1 13.2-1.5 1.5-4.2 0.3-4.2-1.8q0-9.3 0-18.6 2.5 0 5 0-0.6 4.8-0.8 9.6-0.1 2.4-0.2 4.7c0 0.1 0.1 1.7 0.1 1.7 0.1 0-0.5-0.4-0.6-0.5-0.5-0.1-1.3 0.4-1.3 0.9 0.2-1.3 1.8-2.1 3-1.7 1.4 0.3 2 1.7 1.8 3-0.7 4.4-0.8 8.9-0.2 13.3q-2.3-0.6-4.6-1.2 5.8-11.7 9.6-24.2 2.3 0.9 4.6 1.9-5.1 10.1-10.1 20.2c-1 1.9-4.1 1.4-4.6-0.6-1.6-6.8-2.5-13.8-2.7-20.8q2.5 0 5 0 0 2.6 0 5.3c0 2.8-4.2 3.4-4.9 0.7-1.4-5.1 1.3-9.8 4.3-13.7 2.2-2.8 6.3-7.5 4.5-11.4q2.2-0.3 4.5-0.6c-2.6 6.7-4.4 13.7-5.4 20.8-0.4 2.8-5.2 2.2-4.9-0.6 0.4-4.7 1.5-9.2 3.3-13.5 1.5-3.5 5.3-7.8 9.4-5.2q-1.8 0.7-3.7 1.5c1.2-3 1-6.1-0.8-8.8q2 0.3 3.9 0.5c-5.4 6.5-9.9 13.9-13.2 21.7-0.5 1.2-1.6 2.1-3.1 1.7-1.3-0.4-2-1.7-1.7-3.1 0.8-4 1.8-8.3 4.7-11.4 2.6-2.9 6.7-4.6 10.5-3.5 1.5 0.5 2.4 2.3 1.5 3.7q-2.1 3.3-4.2 6.6-1.7-1.7-3.4-3.4c5.4-2.5 13.4-6.3 13.5-13.2q2.5 0.3 5 0.7c-1.1 2.8-3.5 4.6-6.5 5.1-1.5 0.3-3.1 0.3-4.7 0.2-1.5 0-3.1-0.2-4.6 0.3-5.7 2-5.4 10-5.3 14.7q-2.3-0.6-4.6-1.2 4.6-7.7 9.3-15.3c1.6-2.8 6-0.3 4.3 2.5-3.6 6-7.6 11.7-11.9 17.2-1.4 1.6-3.6 0.4-4.2-1.1-1.5-3.8-0.8-8.1 1.1-11.6 2-3.6 5.3-6.3 8.7-8.5 3.3-2.2 7.7-5.4 11.9-4.2 3.6 1 6.3 5.4 4 8.8-1.6 2.4-5.1 0.8-4.6-2q0.5-2.4-0.1-4.8 1.6 0.9 3.1 1.8c-0.2 0-1.1 0.3-0.7 0.2q-0.2 0.1-0.4 0.2c-0.4 0.2 0.1-0.1-0.1 0.1-0.6 0.5-0.5 0.4-0.9 1.2-0.5 0.8-0.5 0.8-0.8 1.7q-0.4 1.1-0.7 2.2c-1.1 3.2-2.3 6.6-5.4 8.4-1.3 0.8-3.4 0.2-3.7-1.5-0.7-4.9-1-9.8-0.6-14.7 0.1-1.4 1.1-2.5 2.5-2.5z"/>
			</g>
		</g>
		<g id="&lt;Group&gt;">
			<g id="&lt;Group&gt;">
				<path id="&lt;Path&gt;" class="s1" d="m1476.6 164.1c1.4 0.4 2 1.7 1.8 3.1q-1.1 8.1-3.6 16c-0.8 2.6-5.1 2.2-4.9-0.7q0.6-8.8 1.2-17.7c0.2-3.2 5-3.3 5 0q0 7.5 0 15.1c0 2.8-4.4 3.5-4.9 0.7-1.1-6.6 0.2-13.4 3.8-19 1.4-2.1 4.5-1.2 4.7 1.3 0.5 6.8-1.4 13.7-5.4 19.2-1.7 2.3-5.3 0.9-4.6-1.9 2.3-10.1 5.6-19.9 9.6-29.4q2 1.5 4 3c-2.9 2.3-5.1 5.1-6.3 8.6-0.5 1.2-1.7 2.1-3.1 1.7-1.3-0.3-2.1-1.8-1.7-3.1q2.3-7.3 4.6-14.7 2.1 1.2 4.1 2.4c-6.2 6.5-10.8 14.5-13.2 23.3q-2.3-1-4.5-2 4.8-10.7 9.6-21.4c1.1-2.5 2.2-5.9 5.2-6.7 3.1-0.9 5.3 1.7 6.1 4.3 1.5 5 0.9 10.5-0.4 15.5-2.2 9.2-7.8 19.1-4.8 28.7q-2.3-0.3-4.6-0.6 4.9-9.5 7.9-19.8c0.6-1.9 3.6-2.6 4.6-0.6 2.3 5.1 2.8 10.8 1 16.1-1.1 3.1-5.3 1.8-4.8-1.3 0.9-5.5 2.7-10.7 5.3-15.6 1.4-2.5 5.2-0.7 4.6 2-1.1 4.4-2.7 8.7-4.7 12.8-1 2.2-4.9 1.2-4.6-1.2q0.5-5.5 1.1-11 2.3 0.7 4.6 1.3-2.1 3.9-4.3 7.8c-1.6 2.8-5.9 0.3-4.3-2.5q2.2-3.9 4.3-7.8c1.2-2.1 4.9-1.3 4.7 1.2q-0.6 5.5-1.1 11-2.4-0.7-4.7-1.3c1.8-3.7 3.2-7.6 4.2-11.7q2.2 1 4.5 2c-2.4 4.5-4 9.3-4.8 14.3q-2.4-0.7-4.8-1.3c1.3-4 1.3-8.4-0.6-12.3q2.3-0.3 4.6-0.6c-2.1 7.3-4.9 14.3-8.3 21-1 2-4 1.4-4.6-0.6-1.6-5.1-1.1-10.5 0.2-15.7 1.1-4.6 2.8-9 4-13.5 1.2-4.1 2.2-8.6 1.4-12.8q-0.1-0.9-0.3-1.8c0 0-0.5-1.3-0.5-1.3 0 0 0.4 0.2 0.4 0.1 0-0.1-0.3 0.4-0.4 0.5-0.8 1.2-1.2 2.7-1.8 4q-0.9 2-1.9 4.1-3.8 8.6-7.7 17.3c-0.5 1.1-2.1 1.4-3.1 1-1.2-0.5-1.8-1.8-1.5-3 2.6-9.5 7.7-18.3 14.5-25.4 1.7-1.8 4.9 0 4.2 2.4q-2.3 7.4-4.6 14.8-2.4-0.7-4.8-1.4c1.5-4.2 4-7.9 7.5-10.7 2.3-1.8 5.1 0.4 3.9 3-3.8 9.1-6.9 18.6-9.1 28.2q-2.3-1-4.5-1.9c3.5-4.9 5.1-10.7 4.7-16.7q2.3 0.6 4.6 1.2c-2.9 4.5-4.1 9.9-3.3 15.1q-2.4 0.4-4.9 0.7 0-7.6 0-15.1 2.5 0 5 0-0.6 8.9-1.2 17.7-2.5-0.3-4.9-0.6 2.4-7.9 3.6-16.1c0.1-1.3 1.9-2 3-1.7z"/>
			</g>
		</g>
		<path id="&lt;Path&gt;" class="s2" d="m1585.3 171.1c0 57.2-46.4 103.6-103.6 103.6-57.2 0-103.6-46.4-103.6-103.6 0-57.2 46.4-103.6 103.6-103.6 57.2 0 103.6 46.4 103.6 103.6z"/>
		<text id="
" style="transform: matrix(1,0,0,1,1485.956,712.444)" >
		</text>
		<text id="
" style="transform: matrix(1,0,0,1,1528.243,691.302)" >
		</text>
		<path id="&lt;Path&gt;" class="s0" d="m1184.9 165.3c0 78.8-63.9 142.8-142.8 142.8-78.9 0-142.8-64-142.8-142.8 0-78.9 63.9-142.9 142.8-142.9 78.9 0 142.8 64 142.8 142.9z"/>
		<g id="&lt;Group&gt;">
			<g id="&lt;Group&gt;">
				<path id="&lt;Path&gt;" class="s1" d="m1042.7 156.4c3 2.8 4.1 6.9 3.4 10.9q-2.3-1-4.6-2 3.8-6.7 7.5-13.3 1.4 1.8 2.8 3.6c-7.2 1.3-13.5 5-18.2 10.6-0.9 1.1-2.6 0.9-3.5 0-1.1-1-0.9-2.4 0-3.5 5.1-6.2 12.5-10.5 20.4-11.9 2.1-0.4 3.9 1.6 2.8 3.7q-3.7 6.7-7.4 13.4c-0.7 1.1-2 1.4-3.2 1-1.2-0.5-1.6-1.7-1.4-3 0.4-2-0.5-4.4-2.2-5.9-2.3-2.2 1.2-5.8 3.6-3.6z"/>
			</g>
		</g>
		<g id="&lt;Group&gt;">
			<g id="&lt;Group&gt;">
				<path id="&lt;Path&gt;" class="s1" d="m1038 132.8c1.3 0 2.7 1.1 2.5 2.5-0.3 4.3-0.2 8.8 0.5 13.1q-1.9-0.7-3.7-1.5c0.5-0.3 0.2 0 0.7-0.5q0.1-0.1 0.3-0.3c0.5-0.6-0.1 0.2 0.1-0.2 0.4-0.5 0.8-1.4 1-1.8 0.5-1.2 1-2.9 1.5-4.3 1.1-3.2 2.8-6.4 6.4-7.1 1.3-0.3 2.7 0.3 3.1 1.7 0.6 2.5 0.6 4.9 0.1 7.3q-2.3-0.9-4.6-1.9c0.4-0.6 0.1-0.2 0.2-0.1-0.2-0.4-0.1-0.3 0-0.2-0.2-0.2-0.3-0.5-0.6-0.7-0.7-0.6-1.9-0.3-2.8 0.1-2.6 0.9-5.1 2.7-7.3 4.3-4 3-7.7 7.8-5.6 13q-2.1-0.6-4.2-1.1c4-5 7.6-10.3 10.9-15.8q2.2 1.2 4.3 2.5-4.5 7.5-9.1 15c-1.3 2.1-4.5 1.2-4.6-1.3-0.2-6.4 0.2-13.6 5.9-17.8 2.8-2 6.1-1.9 9.4-1.8 1.6 0.1 4.8 0.2 5.4-1.7 0.9-2.5 5-2.2 4.9 0.7-0.2 8.8-8.5 13.9-15.7 17.2-1 0.5-2.2 0.5-3-0.4-0.8-0.7-1-2.1-0.4-3q2.1-3.3 4.1-6.5 0.8 1.8 1.5 3.7c-2.3-0.7-4.6 0.7-5.9 2.6-1.8 2.4-2.4 5.6-2.9 8.5q-2.4-0.6-4.9-1.3c3.6-8.5 8.4-16.3 14.3-23.4 1.1-1.3 3.1-0.7 3.9 0.5 2.4 3.6 2.9 8.4 1.3 12.4-0.6 1.4-2.2 2.4-3.7 1.5-0.6-0.4 0 0 0.2-0.1-0.7 0.4 0.2-0.3-0.5 0.3-0.4 0.2-0.7 0.5-0.9 0.9-0.8 1.1-1.3 2.4-1.7 3.7-1.1 3-1.8 6.1-2.1 9.2q-2.4-0.3-4.9-0.6c1-7 2.7-13.8 5.3-20.4 0.4-1 1.1-1.6 2.1-1.8 0.9-0.1 2.1 0.3 2.5 1.2 2.2 4.8 0.3 9.7-2.6 13.8-2.4 3.3-6.7 7.4-5.5 11.9q-2.4 0.3-4.9 0.7 0-2.6 0-5.3c0-3.2 4.9-3.2 5 0q0.2 9.7 2.5 19.1-2.3-0.3-4.6-0.6 5-9.9 9.9-19.8c1.3-2.5 5.4-0.7 4.6 2-2.7 8.5-6 16.8-10 24.8-0.5 1-1.8 1.4-2.8 1.2-1.2-0.3-1.7-1.3-1.8-2.4-0.7-4.8-0.5-9.6 0.3-14.4q2.4 0.7 4.8 1.4c-0.4 2.2-2.9 3.2-4.9 2.5-2.3-0.7-2.9-3.2-3-5.4 0-4.9 0.4-9.7 1-14.5 0.1-1.4 1-2.5 2.5-2.5 1.3 0 2.5 1.1 2.5 2.5q0 9.1 0 18.2-2.2-0.9-4.3-1.8c2.4-2.5 3.6-5.9 3.5-9.4-0.1-3.2 4.9-3.2 5 0 0.2 4.8-1.6 9.5-5 13-1.5 1.5-4.2 0.3-4.2-1.8q0-9.1 0-18.2 2.5 0 5 0-0.6 4.5-0.8 9.2-0.1 2.3-0.1 4.6 0 0.7 0 1.5c-0.1 0.5 0.2 0.3-0.5 0q-0.2-0.2-0.5-0.1-0.5 0.4-1 0.8c0.2-1.3 1.9-2 3.1-1.7 1.4 0.4 1.9 1.7 1.7 3.1-0.7 4.3-0.7 8.6-0.1 13q-2.4-0.7-4.7-1.3 5.7-11.4 9.4-23.7 2.3 1 4.6 2-4.9 9.8-9.9 19.7c-0.9 1.9-4 1.4-4.5-0.6-1.6-6.7-2.5-13.5-2.7-20.4q2.5 0 5 0 0 2.7 0 5.3c0 2.8-4.2 3.3-4.9 0.6-1.3-5 1.3-9.5 4.2-13.4 2.1-2.7 6.1-7.3 4.4-11.1q2.3-0.3 4.6-0.6c-2.6 6.6-4.4 13.4-5.4 20.4-0.3 2.8-5.1 2.1-4.9-0.7 0.4-4.6 1.5-9 3.3-13.2 1.5-3.4 5.2-7.6 9.2-5.1q-1.8 0.7-3.6 1.5c1.1-2.9 0.9-5.9-0.8-8.5q2 0.2 3.9 0.5c-5.3 6.3-9.7 13.5-12.9 21.1-0.6 1.3-1.7 2.2-3.1 1.8-1.4-0.4-2-1.8-1.8-3.1 0.8-4 1.8-8 4.6-11.2 2.5-2.9 6.6-4.5 10.4-3.4 1.5 0.4 2.4 2.2 1.5 3.6q-2 3.3-4.1 6.5-1.7-1.7-3.4-3.4c5.2-2.4 13.1-6.2 13.2-12.9q2.5 0.3 4.9 0.7c-0.9 2.7-3.3 4.5-6.1 5-3 0.6-6.1-0.3-9 0.4-5.9 1.6-5.6 9.8-5.4 14.5q-2.3-0.6-4.7-1.2 4.6-7.5 9.1-15c1.7-2.8 6-0.3 4.3 2.5-3.5 5.9-7.4 11.5-11.7 16.8-1.3 1.7-3.5 0.4-4.1-1.1-1.5-3.7-0.8-8 1.1-11.5 2-3.5 5.2-6.1 8.5-8.3 3.3-2.1 7.6-5.2 11.7-4 3.5 1 6.2 5.3 3.9 8.6-1.6 2.4-5.1 0.9-4.5-1.9q0.4-2.3-0.1-4.7 1.5 0.9 3 1.8c-0.2 0-1.1 0.4-0.7 0.2-0.2 0.1-0.7 0.5-0.4 0.2-0.7 0.6-0.5 0.5-1 1.3-0.4 0.8-0.4 0.8-0.7 1.6q-0.3 1-0.7 2.1c-1 3.2-2.2 6.5-5.3 8.3-1.2 0.8-3.4 0.2-3.7-1.5-0.7-4.8-0.9-9.6-0.6-14.4 0.2-1.4 1.1-2.5 2.5-2.5z"/>
			</g>
		</g>
		<path id="&lt;Path&gt;" class="s2" d="m1143.2 165.7c0 56-45.4 101.4-101.5 101.4-56 0-101.4-45.4-101.4-101.4 0-56 45.4-101.4 101.4-101.4 56.1 0 101.5 45.4 101.5 101.4z"/>
		<text id="
" style="transform: matrix(1,0,0,1,1048.782,702.811)" >
		</text>
		<text id="
" style="transform: matrix(1,0,0,1,1090.176,682.114)" >
		</text>
		<path id="&lt;Path&gt;" class="s0" d="m322.4 171.3c0 83.4-67.6 151.1-151.1 151.1-83.4 0-151-67.7-151-151.1 0-83.4 67.6-151 151-151 83.5 0 151.1 67.6 151.1 151z"/>
		<g id="&lt;Group&gt;">
			<g id="&lt;Group&gt;">
				<path id="&lt;Path&gt;" class="s1" d="m171.8 162.1c3.2 2.9 4.4 7.2 3.6 11.3q-2.2-0.9-4.5-1.9 3.9-7.1 7.8-14.2 1.4 1.9 2.9 3.7c-7.6 1.4-14.4 5.3-19.3 11.3-0.9 1-2.7 0.9-3.6 0-1-1-0.8-2.5 0-3.6 5.4-6.5 13.2-11 21.5-12.5 2.1-0.4 4 1.6 2.9 3.7q-4 7-7.9 14.1c-0.6 1.1-2 1.5-3.1 1-1.2-0.5-1.7-1.7-1.5-2.9 0.4-2.3-0.5-4.8-2.3-6.5-2.4-2.2 1.2-5.7 3.5-3.5z"/>
			</g>
		</g>
		<path id="&lt;Path&gt;" class="s2" d="m278.2 171.8c0 59.2-48 107.2-107.2 107.2-59.3 0-107.3-48-107.3-107.2 0-59.3 48-107.3 107.3-107.3 59.2 0 107.2 48 107.2 107.3z"/>
		<text id="
" style="transform: matrix(1,0,0,1,170.635,720.096)" >
		</text>
		<text id="
" style="transform: matrix(1,0,0,1,209.964,752.688)" >
		</text>
		<text id="
" style="transform: matrix(1,0,0,1,214.413,698.205)" >
		</text>
		<text id="
" style="transform: matrix(1,0,0,1,203.469,728.687)" >
		</text>
		<path id="&lt;Path&gt;" class="s0" d="m748.9 170c0 80.6-65.4 146-146 146-80.6 0-146-65.4-146-146 0-80.6 65.4-146 146-146 80.6 0 146 65.4 146 146z"/>
		<g id="&lt;Group&gt;">
			<g id="&lt;Group&gt;">
				<path id="&lt;Path&gt;" class="s1" d="m603.4 161c3.1 2.8 4.3 7 3.5 11q-2.2-0.9-4.5-1.9 3.8-6.8 7.6-13.7 1.4 1.9 2.8 3.7c-7.4 1.3-13.9 5.1-18.6 10.9-0.9 1-2.7 0.9-3.6 0-1-1-0.8-2.5 0-3.6 5.3-6.3 12.8-10.7 20.9-12.1 2.1-0.4 3.9 1.6 2.8 3.7q-3.8 6.8-7.6 13.6c-0.6 1.2-2 1.5-3.1 1.1-1.2-0.5-1.7-1.8-1.5-3 0.4-2.1-0.4-4.5-2.2-6.1-2.4-2.2 1.2-5.8 3.5-3.6z"/>
			</g>
		</g>
		<path id="&lt;Path&gt;" class="s2" d="m706.2 170.4c0 57.3-46.4 103.7-103.7 103.7-57.2 0-103.7-46.4-103.7-103.7 0-57.2 46.5-103.7 103.7-103.7 57.3 0 103.7 46.5 103.7 103.7z"/>
		<text id="
" style="transform: matrix(1,0,0,1,606.706,711.922)" >
		</text>
		<text id="
" style="transform: matrix(1,0,0,1,644.725,743.429)" >
		</text>
		<text id="
" style="transform: matrix(1,0,0,1,649.027,690.761)" >
		</text>
		<text id="
" style="transform: matrix(1,0,0,1,638.447,720.228)" >
		</text>
		<path id="&lt;Path&gt;" class="s3" d="m139 167.9c0 23-7.5 41.6-16.8 41.6-9.3 0-16.8-18.6-16.8-41.6 0-23 7.5-41.7 16.8-41.7 9.3 0 16.8 18.7 16.8 41.7z"/>
		<path id="&lt;Path&gt;" class="s3" d="m124.2 167.9c0 4.2-1.3 7.7-2.9 7.7-1.5 0-2.8-3.5-2.8-7.7 0-4.2 1.3-7.7 2.8-7.7 1.6 0 2.9 3.5 2.9 7.7z"/>
		<path id="&lt;Path&gt;" class="s4" d="m157.3 178.5h3l83.6 0.1v7.3l-87.4-0.4-22.6-47.4z"/>
		<path id="&lt;Path&gt;" class="s5" d="m133.4 136.4l23.6 34.7h86.6l0.3 7.5-86.6-0.1z"/>
		<path id="&lt;Path&gt;" class="s4" d="m132.8 134.1l24 28.8 87.1 0.7-0.2 6.6-86.7 0.9z"/>
		<path id="&lt;Path&gt;" class="s5" d="m131.8 132.8l24.8 22.7 87.3 0.5v7.6l-87.1-0.7z"/>
		<path id="&lt;Path&gt;" class="s6" d="m129.6 129.7l27 18.8 87 0.1 0.3 6.8-87.3 0.1z"/>
		<path id="&lt;Path&gt;" class="s7" d="m121.3 126l93.3 0.1 29 22.5"/>
		<path id="&lt;Path&gt;" class="s3" d="m222.3 186.2c-2.4 21.1-13.2 23.5-13.2 23.5l-86.9-0.2"/>
		<g id="&lt;Group&gt;">
			<text id="
" style="transform: matrix(0,-1,1,0,698.542,541.005)" >
			</text>
			<text id="
" style="transform: matrix(0,-1,1,0,681.981,545.487)" >
			</text>
			<path id="&lt;Path&gt;" class="s8" d="m632.2 232.5l-59.5-0.9v-7.1l-6.7-1.7 0.4-27 7.1-1.6-38.3 0.7 0.4-61.6 36.6 0.5-7.5-3.8 0.4-24.9 7.9-0.5 0.2-6.7 58.8-0.3v6.3l8.2 0.8 0.9 26.1-6.4 2.3 35.1-0.2v60.8l-37.2 0.8 7.6 3 0.5 24-8.5 3z"/>
			<g id="&lt;Group&gt;">
				<g id="&lt;Group&gt;">
					<path id="&lt;Path&gt;" class="s9" d="m567.7 135.9h5v5"/>
					<path id="&lt;Path&gt;" class="s10" d="m572.7 144.2v40.7"/>
					<path id="&lt;Path&gt;" class="s9" d="m572.7 186.5v5h-5"/>
					<path id="&lt;Path&gt;" class="s11" d="m564 191.5h-14.1"/>
					<path id="&lt;Path&gt;" class="s9" d="m548.1 191.5h-5v-5"/>
					<path id="&lt;Path&gt;" class="s10" d="m543.1 183.2v-40.7"/>
					<path id="&lt;Path&gt;" class="s9" d="m543.1 140.9v-5h5"/>
					<path id="&lt;Path&gt;" class="s11" d="m551.7 135.9h14.1"/>
				</g>
			</g>
			<path id="&lt;Path&gt;" class="s10" d="m574.4 105.9h56.3v28.7h-56.3z"/>
			<g id="&lt;Group&gt;">
				<g id="&lt;Group&gt;">
					<path id="&lt;Path&gt;" class="s9" d="m573.6 199v-5h5"/>
					<path id="&lt;Path&gt;" class="s11" d="m581.9 194h41.3"/>
					<path id="&lt;Path&gt;" class="s9" d="m624.9 194h5v5"/>
					<path id="&lt;Path&gt;" class="s11" d="m629.9 202.5v13.5"/>
					<path id="&lt;Path&gt;" class="s9" d="m629.9 217.7v5h-5"/>
					<path id="&lt;Path&gt;" class="s11" d="m621.6 222.7h-41.3"/>
					<path id="&lt;Path&gt;" class="s9" d="m578.6 222.7h-5v-5"/>
					<path id="&lt;Path&gt;" class="s11" d="m573.6 214.2v-13.4"/>
				</g>
			</g>
			<g id="&lt;Group&gt;">
				<g id="&lt;Group&gt;">
					<path id="&lt;Path&gt;" class="s9" d="m657.3 135.2h5v5"/>
					<path id="&lt;Path&gt;" class="s10" d="m662.3 143.5v40.7"/>
					<path id="&lt;Path&gt;" class="s9" d="m662.3 185.8v5h-5"/>
					<path id="&lt;Path&gt;" class="s11" d="m653.6 190.8h-14.1"/>
					<path id="&lt;Path&gt;" class="s9" d="m637.6 190.8h-5v-5"/>
					<path id="&lt;Path&gt;" class="s10" d="m632.6 182.6v-40.7"/>
					<path id="&lt;Path&gt;" class="s9" d="m632.6 140.2v-5h5"/>
					<path id="&lt;Path&gt;" class="s11" d="m641.3 135.2h14.1"/>
				</g>
			</g>
		</g>
		<g id="&lt;Group&gt;">
			<path id="&lt;Path&gt;" class="s12" d="m2606.8-263.2l-263.4 0.5c-21.1-3.1-13.6-18.5-13.6-18.5l29-91.9"/>
			<path id="&lt;Path&gt;" class="s12" d="m2674.9-373.4l29.9 95.4c0 0 2.2 10.2-11 13.7l-46.1 0.4"/>
			<path id="&lt;Path&gt;" class="s12" d="m2681-453.9c0 0 0.5 47 1.8 63.3 1.4 16.2-8.5 16.7-8.5 16.7l-307.2 0.9c-17.6 2.2-14-13.2-14-13.2 0 0 0.4-179-1.8-191.3-2.2-12.3 11.4-13.6 11.4-13.6l145.6 0.8"/>
			<path id="&lt;Path&gt;" class="s12" d="m2641.1-435.5c0 0 1.7 7.9 0.9 18.9-0.8 10-11.1 9.5-13 9.3q-0.3 0-0.7 0c-10.3-0.1-212.2-1.7-222.9 0.8-9 2.2-11.8-5.8-12.5-8.9q-0.3-1-0.3-2c0.2-10.6 1.3-115.4 0.5-127.1-0.7-9.7 6.7-13.1 10-14.2q1.2-0.3 2.4-0.3h92.7"/>
			<g id="&lt;Group&gt;">
				<g id="&lt;Group&gt;">
					<path id="&lt;Path&gt;" class="s13" d="m2369-352.5q0 0-0.1 0c-2.4 0-2.3-3.5 0-3.7 4.2-0.4 8.6-0.1 12.8-0.2q13.9-0.2 27.7-0.3 20.4-0.3 40.7-0.5c2.4 0 2.4 3.7 0 3.7q-20.3 0.3-40.7 0.5-14 0.2-28.1 0.4c-4.1 0-8.3-0.3-12.4 0.1q0-1.8 0-3.7 0.1 0 0.1 0c2.4 0 2.4 3.7 0 3.7z"/>
				</g>
			</g>
			<g id="&lt;Group&gt;">
				<g id="&lt;Group&gt;">
					<path id="&lt;Path&gt;" class="s13" d="m2389.7-324.1q0 0 0 0c-2.4-0.2-2.4-3.7 0-3.8 8.6-0.4 17.2-0.4 25.8-0.6 2.4-0.1 2.4 3.7 0 3.7-8.6 0.2-17.2 0.3-25.8 0.7q0-1.9 0-3.8 0 0 0 0c2.4 0.2 2.4 3.9 0 3.8z"/>
				</g>
			</g>
			<g id="&lt;Group&gt;">
				<g id="&lt;Group&gt;">
					<path id="&lt;Path&gt;" class="s13" d="m2473.9-352.1q-0.1 0-0.1 0c-2.5-0.1-2.4-3.6 0-3.8 4.2-0.4 8.6-0.1 12.8-0.2q13.8-0.1 27.7-0.3 20.3-0.2 40.7-0.5c2.4 0 2.4 3.7 0 3.8q-20.4 0.2-40.7 0.5-14.1 0.1-28.1 0.3c-4.1 0-8.3-0.2-12.4 0.2q0-1.9 0-3.8 0 0 0.1 0c2.4 0 2.4 3.8 0 3.8z"/>
				</g>
			</g>
			<g id="&lt;Group&gt;">
				<g id="&lt;Group&gt;">
					<path id="&lt;Path&gt;" class="s13" d="m2547.1-322.5q-0.1 0-0.1 0c-2.5 0-2.4-3.5 0-3.7 4.2-0.4 8.6-0.1 12.8-0.2q13.8-0.1 27.7-0.3 20.4-0.3 40.7-0.5c2.4 0 2.4 3.7 0 3.8q-20.3 0.2-40.7 0.4-14 0.2-28.1 0.4c-4.1 0-8.3-0.3-12.4 0.1q0-1.8 0-3.7 0 0 0.1 0c2.4 0 2.4 3.8 0 3.7z"/>
				</g>
			</g>
			<g id="&lt;Group&gt;">
				<g id="&lt;Group&gt;">
					<path id="&lt;Path&gt;" class="s13" d="m2378.9-297.7q0 0-0.1 0c-2.4-0.1-2.3-3.5 0-3.8 4.2-0.4 8.6-0.1 12.8-0.1q13.8-0.2 27.7-0.4 20.4-0.2 40.7-0.5c2.4 0 2.4 3.8 0 3.8q-20.3 0.2-40.7 0.5-14 0.1-28.1 0.3c-4.1 0.1-8.3-0.2-12.4 0.2q0-1.9 0-3.8 0.1 0 0.1 0c2.4 0 2.4 3.8 0 3.8z"/>
				</g>
			</g>
			<g id="&lt;Group&gt;">
				<g id="&lt;Group&gt;">
					<path id="&lt;Path&gt;" class="s13" d="m2448.1-322.6q0 0 0 0c-0.6 0-1.4-0.3-1.6-0.9q0 0 0 0c-0.6-1.3 0-2.8 1.6-2.8 18.4-0.7 37-0.6 55.5-0.9 2.4 0 2.4 3.7 0 3.8-18.5 0.2-37.1 0.1-55.5 0.8q0.8-1.4 1.6-2.8-0.8-0.5-1.6-0.9c2.4 0 2.4 3.7 0 3.7z"/>
				</g>
			</g>
			<g id="&lt;Group&gt;">
				<g id="&lt;Group&gt;">
					<path id="&lt;Path&gt;" class="s13" d="m2496.6-298.8q0 0 0 0c-0.6 0-1.4-0.4-1.7-1q0 0 0 0c-0.5-1.3 0.1-2.7 1.7-2.8 18.4-0.7 36.9-0.6 55.4-0.9 2.4 0 2.4 3.8 0 3.8-18.5 0.3-37 0.2-55.4 0.9q0.8-1.4 1.6-2.8-0.8-0.5-1.6-1c2.4 0 2.4 3.8 0 3.8z"/>
				</g>
			</g>
			<g id="&lt;Group&gt;">
				<g id="&lt;Group&gt;">
					<path id="&lt;Path&gt;" class="s13" d="m2604.4-296.8q0 0 0 0c-0.6-0.1-1.4-0.4-1.6-1q0 0 0 0c-0.6-1.3 0.1-2.7 1.6-2.8 18.5-0.7 37-0.6 55.5-0.9 2.4 0 2.4 3.7 0 3.8-18.5 0.3-37 0.2-55.5 0.9q0.8-1.5 1.6-2.9-0.8-0.4-1.6-0.9c2.5 0 2.5 3.8 0 3.8z"/>
				</g>
			</g>
			<g id="&lt;Group&gt;">
				<g id="&lt;Group&gt;">
					<path id="&lt;Path&gt;" class="s13" d="m2578.7-352.8q0 0 0 0c-2.5-0.1-2.4-3.5 0-3.7 4.2-0.5 8.5-0.2 12.7-0.2q13.9-0.2 27.8-0.4 20.3-0.2 40.7-0.4c2.4-0.1 2.4 3.7 0 3.7q-20.4 0.3-40.7 0.5-14.1 0.2-28.1 0.3c-4.1 0.1-8.4-0.2-12.4 0.2q0-1.9 0-3.7 0 0 0 0c2.5 0 2.5 3.7 0 3.7z"/>
				</g>
			</g>
			<g id="&lt;Group&gt;">
				<g id="&lt;Group&gt;">
					<path id="&lt;Path&gt;" class="s13" d="m2513.1-597.4q0 0.1 0 0.2c0.2 4.9 0 9.8 0 14.7q0 15.1 0 30.2 0 17.5 0 34.9 0 14.4 0 28.8 0 6 0 12.1-0.3-0.6-0.6-1.1 0 0.1 0.1 0.1c1.3 0.5 2.6 1.5 3.8 2.2q3.9 2.3 7.9 4.5 11.9 6.9 23.9 13.9 13.7 7.9 27.5 15.9 11.4 6.6 22.9 13.2 4.7 2.8 9.5 5.5-0.9 0.6-1.9 1.1 0-0.1 0-0.2c-0.2-1.6 0-3.4 0-5q0-5.3 0.1-10.6 0-16 0.1-31.9 0-18.5 0.1-37 0-15.3 0.1-30.7 0-6.4 0-12.8 0.3 0.6 0.6 1.1-0.1 0-0.1-0.1c-1.3-0.3-2.6-1.3-3.8-1.8q-4-2-7.9-4-12-6-23.9-12-13.9-6.9-27.8-13.8-11.5-5.8-22.9-11.5-4.8-2.4-9.6-4.8c-1.4-0.7-0.2-2.9 1.3-2.2q0 0.1 0.1 0.1c3.9 1.9 7.8 3.9 11.7 5.9q11.9 5.9 23.9 11.9 13.9 7 27.8 13.9 11.4 5.7 22.9 11.5 4.8 2.4 9.6 4.8c0.4 0.2 0.6 0.6 0.6 1q0 0.1 0 0.3c0.2 5.1 0 10.4-0.1 15.6q0 15.9 0 31.9-0.1 18.5-0.2 37 0 15.3 0 30.6-0.1 6.4-0.1 12.8c0 1-1 1.6-1.9 1.1q-0.3-0.2-0.7-0.4-7.3-4.3-14.7-8.6-13.4-7.7-26.7-15.4-14.2-8.2-28.5-16.5-10.3-5.9-20.6-11.9c-1.4-0.8-2.8-1.6-4.2-2.4-1-0.6-0.8-1.6-0.8-2.6q0-8.8 0-17.6 0-15.1 0-30.3 0-16.7 0-33.4 0-13.5 0-27 0-5.6 0-11.2c0-1.6 2.5-1.6 2.5 0z"/>
				</g>
			</g>
			<g id="&lt;Group&gt;">
				<g id="&lt;Group&gt;">
					<path id="&lt;Path&gt;" class="s13" d="m2513-599.5q0.3-0.1 0.7-0.2 6.8-2.6 13.7-5.1 12.5-4.7 25-9.3 13.5-5 27-10 10.1-3.7 20.2-7.5 2.4-0.9 4.7-1.8c0.7-0.2 1.2-0.2 1.9 0.1q6.8 2.4 13.5 4.9 12.2 4.4 24.4 8.9 13.7 5 27.4 9.9 11.1 4.1 22.3 8.1 4.6 1.7 9.3 3.4c0.9 0.3 1.3 1.8 0.3 2.3q-0.4 0.2-0.7 0.3-6.7 3.3-13.5 6.6-12.4 6.1-24.8 12.2-13.7 6.6-27.4 13.3-10.7 5.2-21.4 10.5-2.9 1.4-5.7 2.8c-0.9 0.4-1.7 1-2.7 0.5-3.9-1.7-7.7-3.8-11.5-5.7q-11.7-6-23.5-11.9-13.7-6.9-27.4-13.8-11.3-5.7-22.6-11.4-4.8-2.4-9.5-4.8c-1.4-0.7-0.2-2.9 1.3-2.2q0 0.1 0.1 0.1c3.9 1.9 7.7 3.9 11.5 5.8q11.8 6 23.6 11.9 13.7 6.9 27.3 13.8 11.4 5.7 22.7 11.4 4.7 2.4 9.4 4.7-0.6 0-1.3 0 0.1 0 0.2 0c1.1-0.8 2.5-1.3 3.7-1.8q3.9-2 7.8-3.9 11.9-5.8 23.7-11.5 13.7-6.7 27.4-13.4 11.3-5.5 22.6-11.1 4.7-2.3 9.4-4.6 0.2 1.2 0.3 2.3-0.3-0.1-0.6-0.2-6.6-2.4-13.1-4.8-12.1-4.4-24.2-8.8-13.7-4.9-27.4-9.9-11.2-4.1-22.5-8.2-3.5-1.3-7-2.5-1-0.4-1.9-0.8c-0.1 0-0.8-0.1-0.8-0.2 0.1 0.2 0.8-0.2 0.5 0-0.1 0.1-0.3 0.1-0.4 0.2q-0.9 0.3-1.9 0.6-3.4 1.3-6.8 2.6-11.4 4.2-22.7 8.4-13.7 5.1-27.3 10.1-11.5 4.3-23 8.6-4.8 1.7-9.6 3.5c-1.5 0.6-2.2-1.8-0.7-2.4z"/>
				</g>
			</g>
			<g id="&lt;Group&gt;">
				<g id="&lt;Group&gt;">
					<path id="&lt;Path&gt;" class="s13" d="m2608.8-551.6q0 0.1 0 0.3c0.2 5.2 0 10.5 0.1 15.8q0.1 16.2 0.2 32.5 0.1 18.8 0.2 37.6 0.1 15.5 0.2 31.1 0 6.5 0 13-0.9-0.6-1.8-1.1 0-0.1 0.1-0.1c1.1-0.9 2.6-1.4 3.8-2.1q3.9-2.2 7.8-4.4 11.9-6.6 23.8-13.3 13.7-7.7 27.4-15.4 11.4-6.3 22.8-12.7 4.8-2.7 9.5-5.3-0.3 0.5-0.6 1 0-0.1 0-0.2c-0.2-1.5 0-3.2 0-4.8q0.1-5 0.1-10 0.2-15.3 0.3-30.6 0.2-17.7 0.4-35.4 0.1-14.6 0.2-29.3 0.1-6.1 0.1-12.1 1 0.5 1.9 1-0.1 0.1-0.1 0.1c-1.2 0.8-2.6 1.2-3.9 1.8q-3.9 1.9-7.9 3.7-12.2 5.7-24.3 11.4-14 6.6-28.1 13.2-11.5 5.4-23.1 10.9-4.9 2.2-9.7 4.5c-1.5 0.7-2.8-1.5-1.3-2.1q0.1-0.1 0.2-0.1c1.2-0.7 2.5-1.2 3.8-1.8q4-1.9 7.9-3.7 12.2-5.7 24.4-11.5 14-6.5 28-13.1 11.6-5.4 23.2-10.9 4.8-2.2 9.7-4.5c0.8-0.4 1.9 0 1.8 1.1q0 0.1 0 0.2c0.2 4.9-0.1 9.9-0.1 14.8q-0.1 15.3-0.3 30.6-0.1 17.7-0.3 35.4-0.2 14.6-0.3 29.3 0 6.1-0.1 12.1c0 0.5-0.2 0.9-0.6 1.1q-0.1 0.1-0.2 0.1c-3.7 2.3-7.7 4.3-11.5 6.5q-11.9 6.6-23.9 13.3-13.7 7.7-27.4 15.4-11.4 6.3-22.8 12.7-4.7 2.7-9.5 5.3c-0.8 0.5-1.9-0.1-1.9-1q0-0.2 0-0.3c-0.2-5.2 0-10.5-0.1-15.8q0-16.2-0.1-32.5-0.2-18.8-0.3-37.6-0.1-15.5-0.1-31.1-0.1-6.5-0.1-13c0-1.6 2.5-1.6 2.5 0z"/>
				</g>
			</g>
		</g>
		<g id="&lt;Group&gt;">
			<g id="&lt;Group&gt;">
				<g id="&lt;Group&gt;">
					<path id="&lt;Path&gt;" class="s13" d="m1434.7 212.8q0 0 0 0c-2.5 0-2.5-3.6 0-3.7 9.3-0.2 18.7-0.2 28.1-0.3 2.4-0.1 2.4 3.7 0 3.7-9.4 0.1-18.8 0.1-28.1 0.3q0-1.8 0-3.7 0 0 0 0c2.4 0 2.4 3.8 0 3.7z"/>
				</g>
			</g>
			<g id="&lt;Group&gt;">
				<g id="&lt;Group&gt;">
					<path id="&lt;Path&gt;" class="s13" d="m1475.5 212.5q0 0 0 0c-2.5-0.1-2.5-3.7 0-3.8 6.4-0.2 12.8-0.2 19.2-0.3 2.4 0 2.4 3.7 0 3.8-6.4 0.1-12.8 0.1-19.2 0.3q0-1.9 0-3.8 0 0 0 0c2.4 0.1 2.4 3.9 0 3.8z"/>
				</g>
			</g>
			<g id="&lt;Group&gt;">
				<g id="&lt;Group&gt;">
					<path id="&lt;Path&gt;" class="s13" d="m1512.8 213.1q0 0 0 0c-2.4-0.1-2.4-3.6 0-3.7 6.4-0.2 12.8-0.2 19.2-0.3 2.5 0 2.5 3.7 0 3.7-6.4 0.1-12.8 0.2-19.2 0.3q0-1.8 0-3.7 0 0 0 0c2.4 0.1 2.5 3.8 0 3.7z"/>
				</g>
			</g>
			<g id="&lt;Group&gt;">
				<path id="&lt;Path&gt;" class="s14" d="m1513.6 223.6l-91.2 0.2c-7.3-1.1-4.8-6.5-4.8-6.5l10.1-31.8"/>
				<path id="&lt;Path&gt;" class="s14" d="m1537.3 185.4l10.3 33.1c0 0 0.8 3.5-3.8 4.7l-16 0.1"/>
				<path id="&lt;Path&gt;" class="s14" d="m1539.3 149.2c0 0 0.3 24.6 0.7 30.2 0.5 5.7-2.9 5.8-2.9 5.8l-106.5 0.3c-6.1 0.8-4.9-4.5-4.9-4.5 0 0 0.2-62.1-0.6-66.3-0.7-4.3 4-4.8 4-4.8l64.8 0.4"/>
				<g id="&lt;Group&gt;">
					<g id="&lt;Group&gt;">
						<path id="&lt;Path&gt;" class="s13" d="m1431.2 193.9q0 0 0 0c-2.4-0.1-2.4-3.7 0-3.8 9.4-0.2 18.8-0.2 28.2-0.3 2.4 0 2.4 3.7 0 3.7-9.4 0.1-18.8 0.2-28.2 0.4q0-1.9 0-3.8 0 0 0 0c2.5 0.1 2.5 3.8 0 3.8z"/>
					</g>
				</g>
				<g id="&lt;Group&gt;">
					<g id="&lt;Group&gt;">
						<path id="&lt;Path&gt;" class="s13" d="m1438.4 203.7q0 0 0 0c-2.4-0.2-2.4-3.6 0-3.8 3-0.1 6-0.1 9-0.2 2.4 0 2.4 3.7 0 3.8-3 0-6 0.1-9 0.2q0-1.9 0-3.8 0 0 0 0c2.4 0.2 2.4 4 0 3.8z"/>
					</g>
				</g>
				<g id="&lt;Group&gt;">
					<g id="&lt;Group&gt;">
						<path id="&lt;Path&gt;" class="s13" d="m1467.6 194q0 0 0 0c-2.5-0.1-2.4-3.7 0-3.8 9.3-0.2 18.7-0.2 28.1-0.3 2.4 0 2.4 3.7 0 3.7-9.4 0.2-18.8 0.2-28.1 0.4q0-1.9 0-3.8 0 0 0 0c2.4 0.1 2.4 3.8 0 3.8z"/>
					</g>
				</g>
				<g id="&lt;Group&gt;">
					<g id="&lt;Group&gt;">
						<path id="&lt;Path&gt;" class="s13" d="m1493 204.3q-0.1 0-0.1 0c-2.4-0.1-2.4-3.7 0-3.8 9.4-0.2 18.8-0.2 28.2-0.3 2.4 0 2.4 3.7 0 3.7-9.4 0.1-18.8 0.2-28.2 0.4q0-1.9 0-3.8 0 0 0.1 0c2.4 0.1 2.4 3.8 0 3.8z"/>
					</g>
				</g>
				<g id="&lt;Group&gt;">
					<g id="&lt;Group&gt;">
						<path id="&lt;Path&gt;" class="s13" d="m1458.7 204.2q0 0 0 0c-2.5-0.1-2.5-3.7 0-3.7 6.4-0.2 12.8-0.2 19.2-0.3 2.4-0.1 2.4 3.7 0 3.7-6.4 0.1-12.8 0.2-19.2 0.3q0-1.8 0-3.7 0 0 0 0c2.4 0.1 2.4 3.8 0 3.7z"/>
					</g>
				</g>
				<g id="&lt;Group&gt;">
					<g id="&lt;Group&gt;">
						<path id="&lt;Path&gt;" class="s13" d="m1503.9 193.8q0 0 0 0c-2.4-0.1-2.4-3.7 0-3.8 9.4-0.2 18.8-0.2 28.1-0.3 2.5-0.1 2.5 3.7 0 3.7-9.3 0.1-18.7 0.1-28.1 0.4q0-1.9 0-3.8 0 0 0 0c2.4 0.1 2.4 3.8 0 3.8z"/>
					</g>
				</g>
				<g id="&lt;Group&gt;">
					<g id="&lt;Group&gt;">
						<path id="&lt;Path&gt;" class="s13" d="m1490.6 112.3q0 2.1 0 4.2 0 15 0 29.9-0.3-0.5-0.6-1 1.7 0.9 3.4 1.9 11.8 6.8 23.6 13.7-0.9 0.5-1.9 1.1 0-2.3 0-4.5 0.1-15.9 0.1-31.7 0.3 0.5 0.6 1-1.6-0.8-3.3-1.6-11.9-6-23.8-11.9c-1.4-0.7-0.1-2.9 1.3-2.2q1.7 0.9 3.4 1.7 11.8 6 23.7 11.9c0.4 0.2 0.6 0.7 0.6 1.1q0 2.2 0 4.5 0 15.8-0.1 31.7c0 0.9-1 1.5-1.9 1q-6-3.4-12-6.9-6.9-4-13.8-8c-0.9-0.5-1.7-0.9-1.8-2.1 0-1.6 0-3.2 0-4.8q0-14.5 0-29c0-1.6 2.5-1.6 2.5 0z"/>
					</g>
				</g>
				<g id="&lt;Group&gt;">
					<g id="&lt;Group&gt;">
						<path id="&lt;Path&gt;" class="s13" d="m1489.5 110.9q5.6-2.1 11.2-4.2 6.6-2.5 13.3-4.9c0.7-0.3 1.4-0.7 2.2-0.5 1.3 0.4 2.6 0.9 3.8 1.4q11.8 4.3 23.6 8.6c0.9 0.3 1.3 1.7 0.3 2.2q-5.6 2.8-11.3 5.5-6.8 3.4-13.6 6.7c-1 0.5-2.1 1.3-3.2 0.9-1-0.4-2-1-3-1.5q-11.8-6-23.6-12c-1.5-0.7-0.2-2.8 1.2-2.1q1.7 0.8 3.4 1.7 11.7 5.9 23.3 11.7-0.6 0-1.2 0 1.6-0.8 3.3-1.6 11.7-5.7 23.4-11.4 0.2 1.1 0.3 2.3-5.3-2-10.7-3.9-7-2.6-14.1-5.1-0.9-0.4-1.9-0.8c-0.1 0-0.8-0.1-0.8-0.2 0.3 0.7 0.9-0.3 0.5 0-0.2 0.1-0.4 0.1-0.5 0.2q-1 0.4-2 0.7-11.6 4.4-23.3 8.7c-1.5 0.5-2.1-1.9-0.6-2.4z"/>
					</g>
				</g>
				<g id="&lt;Group&gt;">
					<g id="&lt;Group&gt;">
						<path id="&lt;Path&gt;" class="s13" d="m1517.2 125.2q0 2.4 0.1 4.7 0 16 0.1 32.1-0.9-0.5-1.8-1.1 1.7-0.9 3.3-1.9 11.8-6.5 23.5-13.1-0.3 0.5-0.6 1.1 0-2.2 0.1-4.4 0.1-15.1 0.3-30.2 0.9 0.5 1.8 1.1-1.7 0.8-3.4 1.6-12 5.6-24 11.2c-1.4 0.7-2.7-1.4-1.3-2.1q1.7-0.8 3.4-1.6 12.1-5.7 24.1-11.3c0.8-0.4 1.9 0.1 1.9 1.1q-0.1 2.1-0.1 4.3-0.1 15.1-0.3 30.3c0 0.4-0.2 0.8-0.6 1q-1.7 1-3.4 1.9-11.7 6.6-23.5 13.2c-0.8 0.4-1.9-0.1-1.9-1.1q0-2.3 0-4.6-0.1-16.1-0.2-32.2c0-1.6 2.5-1.6 2.5 0z"/>
					</g>
				</g>
				<path id="&lt;Path&gt;" class="s14" d="m1529.7 154.9v22.2l-95.8-0.3-0.5-57.1h51.8"/>
			</g>
		</g>
		<g id="&lt;Group&gt;">
			<path id="&lt;Path&gt;" class="s12" d=""/>
			<path id="&lt;Path&gt;" class="s15" d="m1099.8 218.5h-113.5v-17.6h113.5z"/>
			<path id="&lt;Path&gt;" class="s15" d="m994.2 122.8c0 4-3.3 7.3-7.3 7.3-4 0-7.2-3.3-7.2-7.3 0-4 3.2-7.2 7.2-7.2 4 0 7.3 3.2 7.3 7.2z"/>
			<path id="&lt;Path&gt;" class="s15" d="m1028.5 123c0 4-3.3 7.3-7.3 7.3-4 0-7.3-3.3-7.3-7.3 0-4 3.3-7.2 7.3-7.2 4 0 7.3 3.2 7.3 7.2z"/>
			<path id="&lt;Path&gt;" class="s15" d="m1071.4 122.9c0 4-3.2 7.3-7.2 7.3-4 0-7.3-3.3-7.3-7.3 0-4 3.3-7.2 7.3-7.2 4 0 7.2 3.2 7.2 7.2z"/>
			<path id="&lt;Path&gt;" class="s15" d="m1107.6 122.7c0 4-3.3 7.2-7.3 7.2-4 0-7.2-3.2-7.2-7.2 0-4 3.2-7.3 7.2-7.3 4 0 7.3 3.3 7.3 7.3z"/>
			<path id="&lt;Path&gt;" class="s15" d="m994.2 122.8l19.7 0.2"/>
			<path id="&lt;Path&gt;" class="s15" d="m1071.4 122.9l20.6-0.1"/>
			<path id="&lt;Path&gt;" class="s15" d="m986.9 130.1l-0.6 70.8"/>
			<path id="&lt;Path&gt;" class="s15" d="m1100.3 129.9l-0.5 71"/>
			<path id="&lt;Path&gt;" class="s15" d="m1021.2 130.3l0.1 11.5c0 1.9-0.5 7.9-0.5 7.9"/>
			<path id="&lt;Path&gt;" class="s15" d="m1064.3 130l0.1 13.7"/>
			<path id="&lt;Path&gt;" class="s16" d="m1027.2 153.5h-11.4v-9.8h11.4z"/>
			<path id="&lt;Path&gt;" class="s16" d="m1069.3 153.5h-11.4v-9.5h11.4z"/>
			<path id="&lt;Path&gt;" class="s15" d="m1028.9 177.3h-13.1v-14.5h13.1z"/>
			<path id="&lt;Path&gt;" class="s15" d="m1070.6 200.4h-13.1v-14.5h13.1z"/>
			<path id="&lt;Path&gt;" class="s15" d="m1015.4 168.7c-0.7-0.2-8.8-6.6-8.8-6.6l8.8-7.6 6.4-5.8 15.9 12.9-8.1 7.6"/>
			<path id="&lt;Path&gt;" class="s15" d="m1057.5 169.9c-0.7-0.2-8.8-6.6-8.8-6.6l8.8-7.7 6.4-5.7 15.9 12.9-8 7.6"/>
			<path id="&lt;Path&gt;" class="s16" d=""/>
		</g>
		<g id="&lt;Group&gt;">
			<path id="&lt;Path&gt;" class="s12" d=""/>
			<path id="&lt;Path&gt;" class="s15" d="m1167.7 968.8h-197.4v-30.7h197.4z"/>
			<path id="&lt;Path&gt;" class="s15" d="m983.9 802.4c0 7-5.6 12.7-12.6 12.7-7 0-12.6-5.7-12.6-12.7 0-6.9 5.6-12.6 12.6-12.6 7 0 12.6 5.7 12.6 12.6z"/>
			<path id="&lt;Path&gt;" class="s15" d="m1043.5 802.8c0 7-5.6 12.6-12.6 12.6-7 0-12.6-5.6-12.6-12.6 0-7 5.6-12.6 12.6-12.6 7 0 12.6 5.6 12.6 12.6z"/>
			<path id="&lt;Path&gt;" class="s15" d="m1118.2 802.6c0 7-5.6 12.6-12.6 12.6-7 0-12.6-5.6-12.6-12.6 0-6.9 5.6-12.6 12.6-12.6 7 0 12.6 5.7 12.6 12.6z"/>
			<path id="&lt;Path&gt;" class="s15" d="m1181.1 802.2c0 7-5.6 12.6-12.6 12.6-7 0-12.6-5.6-12.6-12.6 0-7 5.6-12.6 12.6-12.6 7 0 12.6 5.6 12.6 12.6z"/>
			<path id="&lt;Path&gt;" class="s15" d="m983.9 802.4l34.4 0.4"/>
			<path id="&lt;Path&gt;" class="s15" d="m1118.2 802.6l35.8-0.2"/>
			<path id="&lt;Path&gt;" class="s15" d="m971.3 815.1l-1 123"/>
			<path id="&lt;Path&gt;" class="s15" d="m1168.5 814.8l-0.8 123.3"/>
			<path id="&lt;Path&gt;" class="s15" d="m1030.9 815.4l0.2 20.1c0 3.3-0.8 13.7-0.8 13.7"/>
			<path id="&lt;Path&gt;" class="s15" d="m1105.8 815l0.2 23.8"/>
			<path id="&lt;Path&gt;" class="s16" d="m1041.4 855.8h-19.9v-17h19.9z"/>
			<path id="&lt;Path&gt;" class="s16" d="m1114.6 855.8h-19.8v-16.6h19.8z"/>
			<path id="&lt;Path&gt;" class="s15" d="m1044.3 897.2h-22.7v-25.3h22.7z"/>
			<path id="&lt;Path&gt;" class="s15" d="m1116.8 937.3h-22.8v-25.2h22.8z"/>
			<path id="&lt;Path&gt;" class="s15" d="m1020.8 882.3c-1.3-0.4-15.4-11.6-15.4-11.6l15.4-13.3 11.1-9.9 27.8 22.4-14.1 13.2"/>
			<path id="&lt;Path&gt;" class="s15" d="m1094 884.3c-1.2-0.4-15.3-11.5-15.3-11.5l15.3-13.3 11.2-9.9 27.7 22.3-14.1 13.3"/>
			<path id="&lt;Path&gt;" class="s16" d=""/>
		</g>
	</g>
</svg>