<svg xmlns="http://www.w3.org/2000/svg" viewBox="0 0 472 347.51"><defs><style>.cls-1{fill:#14254c;}.cls-1,.cls-2{fill-rule:evenodd;}.cls-2{fill:#e92227;}.cls-3,.cls-4{fill:none;stroke-miterlimit:22.93;stroke-width:0.8px;}.cls-3{stroke:#e92227;}.cls-4{stroke:#14254c;}</style></defs><title>Asset 1</title><g id="Layer_2" data-name="Layer 2"><g id="Layer_2-2" data-name="Layer 2"><path class="cls-1" d="M274.06,196.07a94.91,94.91,0,0,0,49.66-64.92l19.7-25.79c.15,2.24.21,4.51.21,6.77A112,112,0,0,1,254.32,221.9Z"/><path class="cls-1" d="M120.94,130.71A112.09,112.09,0,0,1,323.57,48.2L312,63.34A93.87,93.87,0,0,0,231.5,18c-50.58,0-92.5,40.79-94.07,91.21Z"/><path class="cls-2" d="M134.86,168.86a108.52,108.52,0,0,1-8.63-18.24l74.82-97.9,14.28,10.92Z"/><path class="cls-2" d="M231.51,224.23a112.27,112.27,0,0,1-20.61-1.91L346.57,44.9A135.72,135.72,0,0,1,355.4,63L232.05,224.23Z"/><path class="cls-1" d="M137.17,261.59A153.58,153.58,0,0,1,117,247.29L255.27,66.51a74.57,74.57,0,0,1,18.41,16.54Z"/><path class="cls-1" d="M9,299v13.08H.4v-38H13.8q14.37,0,14.36,12.1A11.59,11.59,0,0,1,24,295.44c-2.75,2.35-6.41,3.54-11,3.54Zm0-18.35v11.85h3.37q6.82,0,6.83-6t-6.83-5.86ZM65.6,312.06H55.78l-5.92-9.78c-.44-.74-.86-1.4-1.27-2a10.17,10.17,0,0,0-1.23-1.49,4.74,4.74,0,0,0-1.3-1,3.36,3.36,0,0,0-1.46-.34H42.28v14.55H33.72v-38H47.29q13.83,0,13.83,10.32a10.41,10.41,0,0,1-2.33,6.72,11.39,11.39,0,0,1-2.69,2.31A13.59,13.59,0,0,1,52.59,295v.1a6.12,6.12,0,0,1,1.65.87,11.51,11.51,0,0,1,1.54,1.39,16.78,16.78,0,0,1,1.4,1.71c.46.6.86,1.2,1.24,1.79ZM42.28,280.48v10.57H46a6.14,6.14,0,0,0,4.42-1.59,5.3,5.3,0,0,0,1.7-4q0-5-6-5Zm49.65,31.58H69.15v-38h21.9v7H77.7v8.45H90.13v6.93H77.7v8.69H91.93Zm49.37,0h-8.45V289.32c0-2.44.12-5.16.32-8.12H133a42.46,42.46,0,0,1-1.21,5l-8.89,25.82h-7l-9.06-25.57a52.69,52.69,0,0,1-1.19-5.29h-.24c.22,3.74.35,7,.35,9.85v21H98v-38h12.53l7.76,22.51a30.86,30.86,0,0,1,1.34,5.44h.17a49.22,49.22,0,0,1,1.51-5.49l7.75-22.46H141.3Z"/><path class="cls-2" d="M176.63,274.08v6.61h-3.17v24.75h3.17v6.62H161.72v-6.62h3.17V280.69h-3.17v-6.61Zm39.63,38h-8.63L192,288.19a35.17,35.17,0,0,1-1.91-3.15H190q.19,2,.2,6.14v20.88h-8.09v-38h9.24l15.07,23.11c.68,1.05,1.32,2.08,1.9,3.11h.11a41.88,41.88,0,0,1-.2-5.23v-21h8.07Zm8.68,0v-38H238.4q20.23,0,20.23,18.51,0,8.87-5.51,14.17t-14.72,5.3Zm8.56-31v24.07h4.24q5.55,0,8.72-3.33t3.17-9.09q0-5.43-3.13-8.54T237.7,281Zm62.41,14.57q0,17.1-16,17.11-15.46,0-15.46-16.72V274.08h8.58v22q0,9.21,7.2,9.22c4.72,0,7.07-3,7.07-8.91V274.08h8.56Zm6.52,15v-8.48A16.33,16.33,0,0,0,312.88,306a11.79,11.79,0,0,0,2.83-.29,6.71,6.71,0,0,0,2-.81,3.45,3.45,0,0,0,1.19-1.22,2.88,2.88,0,0,0,.4-1.52,3.31,3.31,0,0,0-.62-2,6.81,6.81,0,0,0-1.74-1.61,17,17,0,0,0-2.61-1.43c-1-.46-2.09-.93-3.26-1.41a16.59,16.59,0,0,1-6.64-4.53,9.88,9.88,0,0,1-2.17-6.45,9.72,9.72,0,0,1,4.42-8.62,14.64,14.64,0,0,1,4.76-2,24.59,24.59,0,0,1,5.73-.65,34.08,34.08,0,0,1,5.25.36,20.45,20.45,0,0,1,4.23,1.11v7.92a12.7,12.7,0,0,0-2.08-1.17,17,17,0,0,0-2.33-.84,17,17,0,0,0-4.6-.64,12,12,0,0,0-2.65.27,7.22,7.22,0,0,0-2,.78,4,4,0,0,0-1.26,1.2,2.85,2.85,0,0,0-.45,1.58,3,3,0,0,0,.49,1.71,5.78,5.78,0,0,0,1.44,1.44,16.12,16.12,0,0,0,2.26,1.32c.87.43,1.87.88,3,1.33a33.88,33.88,0,0,1,4.09,2,13.88,13.88,0,0,1,3.11,2.42,9.5,9.5,0,0,1,2,3.09,12.32,12.32,0,0,1-.51,9.37,9.78,9.78,0,0,1-3.27,3.49,14,14,0,0,1-4.8,1.93,28.59,28.59,0,0,1-5.8.58,32.49,32.49,0,0,1-5.94-.53,18,18,0,0,1-4.89-1.59M361.27,281H350.42v31h-8.58V281H331.06v-7h30.21Zm37,31h-9.82l-5.91-9.78q-.66-1.11-1.26-2a10.85,10.85,0,0,0-1.23-1.5,5.79,5.79,0,0,0-1.3-1,3.44,3.44,0,0,0-1.47-.33h-2.31v14.55h-8.56v-38h13.56q13.85,0,13.83,10.32a10.59,10.59,0,0,1-.61,3.67,10.46,10.46,0,0,1-1.71,3,11.45,11.45,0,0,1-2.7,2.32,13,13,0,0,1-3.52,1.53v.11a5.46,5.46,0,0,1,1.65.87,9.93,9.93,0,0,1,1.54,1.39,17,17,0,0,1,1.42,1.71c.45.6.85,1.2,1.24,1.79Zm-23.3-31.58v10.57h3.71a6.13,6.13,0,0,0,4.42-1.59,5.31,5.31,0,0,0,1.7-4c0-3.32-2-5-6-5Zm38.59-6.4v6.61h-3.17v24.75h3.17v6.62h-14.9v-6.62h3.16V280.69h-3.16v-6.61Zm28.24,38H419v-38h21.9v7H427.54v8.45H440v6.93H427.54v8.69h14.22Zm4.33-1.46v-8.48A16.38,16.38,0,0,0,456.56,306a11.85,11.85,0,0,0,2.83-.29,6.64,6.64,0,0,0,2-.81,3.45,3.45,0,0,0,1.19-1.22,2.89,2.89,0,0,0,.41-1.52,3.32,3.32,0,0,0-.63-2,6.7,6.7,0,0,0-1.75-1.61,16,16,0,0,0-2.6-1.43c-1-.46-2.09-.93-3.26-1.41a16.52,16.52,0,0,1-6.64-4.53,9.88,9.88,0,0,1-2.17-6.45,9.81,9.81,0,0,1,4.43-8.62,14.77,14.77,0,0,1,4.75-2,24.66,24.66,0,0,1,5.73-.65,34.22,34.22,0,0,1,5.26.36,20.52,20.52,0,0,1,4.22,1.11v7.92a12.3,12.3,0,0,0-2.08-1.17,17.36,17.36,0,0,0-2.32-.84,18.63,18.63,0,0,0-2.38-.49,17.52,17.52,0,0,0-2.23-.15,12,12,0,0,0-2.65.27,7.14,7.14,0,0,0-2,.78,4,4,0,0,0-1.27,1.2A2.93,2.93,0,0,0,455,284a3,3,0,0,0,.5,1.71,5.61,5.61,0,0,0,1.44,1.44,15.41,15.41,0,0,0,2.25,1.32c.87.43,1.87.88,3,1.33a33.88,33.88,0,0,1,4.09,2,13.44,13.44,0,0,1,3.11,2.42,9.37,9.37,0,0,1,2,3.09,10.8,10.8,0,0,1,.68,4,11,11,0,0,1-1.19,5.34,9.74,9.74,0,0,1-3.29,3.49,14,14,0,0,1-4.79,1.93,28.52,28.52,0,0,1-5.8.58,32.49,32.49,0,0,1-5.94-.53,18.2,18.2,0,0,1-4.9-1.59"/><path class="cls-2" d="M.4,332H2.67v14.84H.4Zm18.25,14.84V332h3l8.6,12.22V332h1.84v14.84H29.82l-9.35-13.22v13.22Zm29.35,0V332h2.94l8.61,12.22V332h1.84v14.84H59.15L49.8,333.61v13.22Zm35.73-1.26a4.53,4.53,0,0,0,3.7-1.65,8.22,8.22,0,0,0,0-9.06,5,5,0,0,0-7.42,0,8.22,8.22,0,0,0,0,9.06,4.56,4.56,0,0,0,3.72,1.65m0,1.54A7.34,7.34,0,0,1,78.28,345a8.69,8.69,0,0,1,0-11.21,8.09,8.09,0,0,1,10.9,0,8.66,8.66,0,0,1,0,11.21,7.32,7.32,0,0,1-5.45,2.11m26.06-.28L103.55,332h2.24L111,344.6,116.16,332h2L112,346.83Zm19.73,0,6-14.84h2.6l6,14.84h-2.2l-1.77-4.43h-6.89l-1.68,4.43Zm4.34-5.86h5.73l-2.89-7.3Zm28.35-7.45v13.31H160V333.52h-5.14V332h12.54v1.53ZM181,332h2.26v14.84H181Zm24.64,13.58a4.55,4.55,0,0,0,3.71-1.65,8.25,8.25,0,0,0,0-9.06,5,5,0,0,0-7.42,0,8.22,8.22,0,0,0,0,9.06,4.58,4.58,0,0,0,3.72,1.65m0,1.54A7.32,7.32,0,0,1,200.2,345a8.69,8.69,0,0,1,0-11.21,8.08,8.08,0,0,1,10.89,0,8.66,8.66,0,0,1,0,11.21,7.31,7.31,0,0,1-5.45,2.11m22.34-.28V332h3l8.62,12.22V332h1.83v14.84h-2.24l-9.34-13.22v13.22Z"/><path class="cls-3" d="M.4,332H2.67v14.84H.4Zm18.25,14.84V332h3l8.6,12.22V332h1.84v14.84H29.82l-9.35-13.22v13.22Zm29.35,0V332h2.94l8.61,12.22V332h1.84v14.84H59.15L49.8,333.61v13.22Zm35.73-1.26a4.53,4.53,0,0,0,3.7-1.65,8.22,8.22,0,0,0,0-9.06,5,5,0,0,0-7.42,0,8.22,8.22,0,0,0,0,9.06A4.56,4.56,0,0,0,83.73,345.57Zm0,1.54A7.34,7.34,0,0,1,78.28,345a8.69,8.69,0,0,1,0-11.21,8.09,8.09,0,0,1,10.9,0,8.66,8.66,0,0,1,0,11.21A7.32,7.32,0,0,1,83.73,347.11Zm26.06-.28L103.55,332h2.24L111,344.6,116.16,332h2L112,346.83Zm19.73,0,6-14.84h2.6l6,14.84h-2.2l-1.77-4.43h-6.89l-1.68,4.43Zm4.34-5.86h5.73l-2.89-7.3Zm28.35-7.45v13.31H160V333.52h-5.14V332h12.54v1.53ZM181,332h2.26v14.84H181Zm24.64,13.58a4.55,4.55,0,0,0,3.71-1.65,8.25,8.25,0,0,0,0-9.06,5,5,0,0,0-7.42,0,8.22,8.22,0,0,0,0,9.06A4.58,4.58,0,0,0,205.64,345.57Zm0,1.54A7.32,7.32,0,0,1,200.2,345a8.69,8.69,0,0,1,0-11.21,8.08,8.08,0,0,1,10.89,0,8.66,8.66,0,0,1,0,11.21A7.31,7.31,0,0,1,205.64,347.11Zm22.34-.28V332h3l8.62,12.22V332h1.83v14.84h-2.24l-9.34-13.22v13.22Z"/><path class="cls-1" d="M265.24,332h2.27v14.84h-2.27Zm18.26,14.84V332h2.95l8.6,12.22V332h1.86v14.84h-2.26l-9.34-13.22v13.22Zm34.89,0L324.17,332h4.65l5.81,14.84h-4.38l-1.3-3.55h-5.72l-1.29,3.55Zm5.69-6.05h4.05l-2.05-5.5Zm34.52-3.3a3.62,3.62,0,0,0-1-2.31,3,3,0,0,0-2.19-.83,3.11,3.11,0,0,0-2.71,1.3,8,8,0,0,0,0,7.5,3.19,3.19,0,0,0,2.73,1.26,3,3,0,0,0,2.15-.76,4,4,0,0,0,1.13-2.2l3.9.32a6.12,6.12,0,0,1-2.35,3.95,8,8,0,0,1-4.87,1.4,8.13,8.13,0,0,1-5.87-2.08,7.47,7.47,0,0,1-2.16-5.63,7.38,7.38,0,0,1,2.18-5.62,8.19,8.19,0,0,1,5.87-2.1,7.89,7.89,0,0,1,4.93,1.45,6,6,0,0,1,2.27,4.07Zm25.1-2.8v12.15h-4.26V334.68h-4.22V332h12.7v2.69ZM401.65,332H406v14.84h-4.34Zm27.18,12.41a3.17,3.17,0,0,0,2.7-1.31,6.28,6.28,0,0,0,1-3.71,6.15,6.15,0,0,0-1-3.7,3.17,3.17,0,0,0-2.7-1.3,3.13,3.13,0,0,0-2.7,1.3,7.77,7.77,0,0,0,0,7.41,3.14,3.14,0,0,0,2.7,1.31m0,2.71a8.39,8.39,0,0,1-5.95-2.11,8.12,8.12,0,0,1,0-11.21,9.44,9.44,0,0,1,11.91,0,8.06,8.06,0,0,1,0,11.19,8.36,8.36,0,0,1-5.95,2.12m22.78-.28V332H456l7,9.55-.13-9.55h3.52v14.84h-3.62L455,336.19l.14,10.64Z"/><path class="cls-4" d="M265.24,332h2.27v14.84h-2.27Zm18.26,14.84V332h2.95l8.6,12.22V332h1.86v14.84h-2.26l-9.34-13.22v13.22Zm34.89,0L324.17,332h4.65l5.81,14.84h-4.38l-1.3-3.55h-5.72l-1.29,3.55Zm5.69-6.05h4.05l-2.05-5.5Zm34.52-3.3a3.62,3.62,0,0,0-1-2.31,3,3,0,0,0-2.19-.83,3.11,3.11,0,0,0-2.71,1.3,8,8,0,0,0,0,7.5,3.19,3.19,0,0,0,2.73,1.26,3,3,0,0,0,2.15-.76,4,4,0,0,0,1.13-2.2l3.9.32a6.12,6.12,0,0,1-2.35,3.95,8,8,0,0,1-4.87,1.4,8.13,8.13,0,0,1-5.87-2.08,7.47,7.47,0,0,1-2.16-5.63,7.38,7.38,0,0,1,2.18-5.62,8.19,8.19,0,0,1,5.87-2.1,7.89,7.89,0,0,1,4.93,1.45,6,6,0,0,1,2.27,4.07Zm25.1-2.8v12.15h-4.26V334.68h-4.22V332h12.7v2.69ZM401.65,332H406v14.84h-4.34Zm27.18,12.41a3.17,3.17,0,0,0,2.7-1.31,6.28,6.28,0,0,0,1-3.71,6.15,6.15,0,0,0-1-3.7,3.17,3.17,0,0,0-2.7-1.3,3.13,3.13,0,0,0-2.7,1.3,7.77,7.77,0,0,0,0,7.41A3.14,3.14,0,0,0,428.83,344.4Zm0,2.71a8.39,8.39,0,0,1-5.95-2.11,8.12,8.12,0,0,1,0-11.21,9.44,9.44,0,0,1,11.91,0,8.06,8.06,0,0,1,0,11.19A8.36,8.36,0,0,1,428.83,347.11Zm22.78-.28V332H456l7,9.55-.13-9.55h3.52v14.84h-3.62L455,336.19l.14,10.64Z"/></g></g></svg>